<?xml version="1.0" standalone="no"?>
<!DOCTYPE svg PUBLIC "-//W3C//DTD SVG 20010904//EN"
 "http://www.w3.org/TR/2001/REC-SVG-20010904/DTD/svg10.dtd">
<svg version="1.0" xmlns="http://www.w3.org/2000/svg"
 width="500.000000pt" height="500.000000pt" viewBox="0 0 500.000000 500.000000"
 preserveAspectRatio="xMidYMid meet">
<metadata>
Created by potrace 1.14, written by Peter Selinger 2001-2017
</metadata>
<g transform="translate(0.000000,500.000000) scale(0.100000,-0.100000)"
fill="#000000" stroke="none">
<path d="M0 2500 l0 -2500 2500 0 2500 0 0 2500 0 2500 -2500 0 -2500 0 0
-2500z m1392 611 c92 0 98 -6 98 -111 0 -102 -7 -95 105 -104 33 -3 92 -9 130
-13 l70 -8 3 -59 c2 -38 -1 -62 -9 -67 -7 -4 -77 -10 -156 -14 l-143 -7 0
-255 c0 -314 -4 -303 110 -300 62 2 82 -1 97 -16 18 -16 23 -16 57 -2 65 28
96 5 96 -70 -1 -50 -23 -68 -93 -77 -423 -50 -569 -26 -640 107 -21 38 -22 57
-27 325 l-5 285 -60 5 -60 5 0 80 0 80 57 5 c70 6 94 25 103 79 4 22 11 43 16
47 5 3 9 17 9 32 0 54 19 63 115 57 39 -3 96 -5 127 -4z m1315 -8 l113 -6 2
-346 3 -346 48 -3 c33 -2 47 1 48 10 3 52 -5 123 -17 146 -8 16 -14 56 -14 95
0 42 -6 82 -16 102 -9 20 -14 53 -12 86 l3 54 95 -2 c52 -1 131 -6 175 -10
l80 -8 5 -92 c3 -50 8 -94 11 -97 2 -3 83 -8 179 -11 103 -3 179 -10 187 -16
10 -9 14 -7 19 7 4 11 13 34 20 53 8 18 14 55 14 82 0 26 4 59 10 73 9 25 12
26 104 26 52 0 98 -4 101 -10 3 -5 23 -10 45 -10 25 0 40 -5 44 -16 9 -24 6
-303 -5 -359 -15 -80 -36 -205 -49 -280 -6 -38 -18 -102 -27 -142 l-17 -71
-85 -6 c-47 -4 -119 -9 -160 -12 -40 -3 -83 -3 -95 0 -23 6 -49 54 -61 114
-12 61 -49 36 -62 -43 l-8 -50 -80 -8 c-289 -27 -307 -23 -317 68 -3 33 -13
83 -21 110 l-14 50 -64 0 -64 0 -3 -111 -3 -112 -82 -6 c-207 -16 -288 -18
-302 -6 -12 10 -15 38 -15 121 l0 109 -262 2 -263 3 -3 91 c-2 66 1 96 11 105
7 8 24 32 37 54 13 22 38 59 54 81 17 23 38 52 46 64 8 12 26 36 38 53 22 30
84 120 107 156 6 9 28 40 50 71 52 71 97 136 110 158 6 9 14 23 18 30 9 14
157 16 344 5z"/>
<path d="M2393 2603 c-3 -10 -19 -31 -35 -47 -15 -16 -30 -38 -34 -48 -3 -10
-18 -33 -34 -50 -16 -17 -27 -35 -24 -40 3 -4 39 -8 80 -8 l74 0 0 99 c0 94
-12 135 -27 94z"/>
<path d="M3342 2385 c0 -16 2 -22 5 -12 2 9 2 23 0 30 -3 6 -5 -1 -5 -18z"/>
<path d="M3542 2380 c0 -19 2 -27 5 -17 2 9 2 25 0 35 -3 9 -5 1 -5 -18z"/>
<path d="M3306 2292 c-2 -4 -1 -14 3 -21 6 -10 10 -9 14 3 6 16 -8 32 -17 18z"/>
</g>
</svg>
